<mxfile host="app.diagrams.net" modified="2022-01-14T04:43:00.759Z" agent="5.0 (Windows NT 10.0; Win64; x64) AppleWebKit/537.36 (KHTML, like Gecko) Chrome/97.0.4692.71 Safari/537.36" etag="HocbXL71xoqQV81NwBFF" version="16.2.1" type="github">
  <diagram id="NXEd3F06SdvpRlzZAtwD" name="Page-1">
    <mxGraphModel dx="529" dy="569" grid="1" gridSize="10" guides="1" tooltips="1" connect="1" arrows="1" fold="1" page="1" pageScale="1" pageWidth="1100" pageHeight="850" math="0" shadow="0">
      <root>
        <mxCell id="0" />
        <mxCell id="1" parent="0" />
        <mxCell id="BVzkEmnIKLTDEYWlBooW-53" style="rounded=0;orthogonalLoop=1;jettySize=auto;html=1;startArrow=none;startFill=0;endArrow=open;endFill=0;" edge="1" parent="1" source="BVzkEmnIKLTDEYWlBooW-47" target="BVzkEmnIKLTDEYWlBooW-50">
          <mxGeometry relative="1" as="geometry" />
        </mxCell>
        <mxCell id="BVzkEmnIKLTDEYWlBooW-54" style="edgeStyle=none;rounded=0;orthogonalLoop=1;jettySize=auto;html=1;startArrow=none;startFill=0;endArrow=open;endFill=0;" edge="1" parent="1" source="BVzkEmnIKLTDEYWlBooW-47" target="BVzkEmnIKLTDEYWlBooW-51">
          <mxGeometry relative="1" as="geometry" />
        </mxCell>
        <mxCell id="BVzkEmnIKLTDEYWlBooW-55" style="edgeStyle=none;rounded=0;orthogonalLoop=1;jettySize=auto;html=1;startArrow=none;startFill=0;endArrow=open;endFill=0;" edge="1" parent="1" source="BVzkEmnIKLTDEYWlBooW-47" target="BVzkEmnIKLTDEYWlBooW-52">
          <mxGeometry relative="1" as="geometry" />
        </mxCell>
        <mxCell id="BVzkEmnIKLTDEYWlBooW-57" style="edgeStyle=none;rounded=0;orthogonalLoop=1;jettySize=auto;html=1;startArrow=none;startFill=0;endArrow=open;endFill=0;" edge="1" parent="1" source="BVzkEmnIKLTDEYWlBooW-47" target="BVzkEmnIKLTDEYWlBooW-56">
          <mxGeometry relative="1" as="geometry" />
        </mxCell>
        <mxCell id="BVzkEmnIKLTDEYWlBooW-47" value="ปรมัตถธรรม" style="ellipse;whiteSpace=wrap;html=1;" vertex="1" parent="1">
          <mxGeometry x="480" y="430" width="120" height="80" as="geometry" />
        </mxCell>
        <mxCell id="BVzkEmnIKLTDEYWlBooW-49" style="rounded=0;orthogonalLoop=1;jettySize=auto;html=1;startArrow=none;startFill=0;endArrow=open;endFill=0;dashed=1;" edge="1" parent="1" source="BVzkEmnIKLTDEYWlBooW-48" target="BVzkEmnIKLTDEYWlBooW-47">
          <mxGeometry relative="1" as="geometry" />
        </mxCell>
        <mxCell id="BVzkEmnIKLTDEYWlBooW-48" value="&lt;span&gt;บัญญัติธนนม&lt;/span&gt;" style="ellipse;whiteSpace=wrap;html=1;" vertex="1" parent="1">
          <mxGeometry x="840" y="480" width="120" height="80" as="geometry" />
        </mxCell>
        <mxCell id="BVzkEmnIKLTDEYWlBooW-70" style="edgeStyle=none;rounded=0;orthogonalLoop=1;jettySize=auto;html=1;startArrow=none;startFill=0;endArrow=open;endFill=0;dashed=1;" edge="1" parent="1" source="BVzkEmnIKLTDEYWlBooW-50" target="BVzkEmnIKLTDEYWlBooW-58">
          <mxGeometry relative="1" as="geometry" />
        </mxCell>
        <mxCell id="BVzkEmnIKLTDEYWlBooW-50" value="จิต" style="ellipse;whiteSpace=wrap;html=1;" vertex="1" parent="1">
          <mxGeometry x="240" y="530" width="120" height="80" as="geometry" />
        </mxCell>
        <mxCell id="BVzkEmnIKLTDEYWlBooW-71" style="edgeStyle=none;rounded=0;orthogonalLoop=1;jettySize=auto;html=1;startArrow=none;startFill=0;endArrow=open;endFill=0;dashed=1;" edge="1" parent="1" source="BVzkEmnIKLTDEYWlBooW-51" target="BVzkEmnIKLTDEYWlBooW-58">
          <mxGeometry relative="1" as="geometry" />
        </mxCell>
        <mxCell id="BVzkEmnIKLTDEYWlBooW-51" value="เจตสิก" style="ellipse;whiteSpace=wrap;html=1;" vertex="1" parent="1">
          <mxGeometry x="360" y="620" width="120" height="80" as="geometry" />
        </mxCell>
        <mxCell id="BVzkEmnIKLTDEYWlBooW-72" style="edgeStyle=none;rounded=0;orthogonalLoop=1;jettySize=auto;html=1;startArrow=none;startFill=0;endArrow=open;endFill=0;dashed=1;" edge="1" parent="1" source="BVzkEmnIKLTDEYWlBooW-52" target="BVzkEmnIKLTDEYWlBooW-58">
          <mxGeometry relative="1" as="geometry" />
        </mxCell>
        <mxCell id="BVzkEmnIKLTDEYWlBooW-52" value="รูป" style="ellipse;whiteSpace=wrap;html=1;" vertex="1" parent="1">
          <mxGeometry x="510" y="630" width="120" height="80" as="geometry" />
        </mxCell>
        <mxCell id="BVzkEmnIKLTDEYWlBooW-73" style="edgeStyle=none;rounded=0;orthogonalLoop=1;jettySize=auto;html=1;dashed=1;startArrow=none;startFill=0;endArrow=open;endFill=0;" edge="1" parent="1" source="BVzkEmnIKLTDEYWlBooW-56" target="BVzkEmnIKLTDEYWlBooW-61">
          <mxGeometry relative="1" as="geometry" />
        </mxCell>
        <mxCell id="BVzkEmnIKLTDEYWlBooW-56" value="นิพพาน" style="ellipse;whiteSpace=wrap;html=1;" vertex="1" parent="1">
          <mxGeometry x="500" y="300" width="120" height="80" as="geometry" />
        </mxCell>
        <mxCell id="BVzkEmnIKLTDEYWlBooW-62" style="edgeStyle=none;rounded=0;orthogonalLoop=1;jettySize=auto;html=1;startArrow=none;startFill=0;endArrow=open;endFill=0;" edge="1" parent="1" source="BVzkEmnIKLTDEYWlBooW-58" target="BVzkEmnIKLTDEYWlBooW-60">
          <mxGeometry relative="1" as="geometry" />
        </mxCell>
        <mxCell id="BVzkEmnIKLTDEYWlBooW-63" style="edgeStyle=none;rounded=0;orthogonalLoop=1;jettySize=auto;html=1;startArrow=none;startFill=0;endArrow=open;endFill=0;" edge="1" parent="1" source="BVzkEmnIKLTDEYWlBooW-58" target="BVzkEmnIKLTDEYWlBooW-59">
          <mxGeometry relative="1" as="geometry" />
        </mxCell>
        <mxCell id="BVzkEmnIKLTDEYWlBooW-64" style="edgeStyle=none;rounded=0;orthogonalLoop=1;jettySize=auto;html=1;startArrow=none;startFill=0;endArrow=open;endFill=0;" edge="1" parent="1" source="BVzkEmnIKLTDEYWlBooW-58" target="BVzkEmnIKLTDEYWlBooW-61">
          <mxGeometry relative="1" as="geometry" />
        </mxCell>
        <mxCell id="BVzkEmnIKLTDEYWlBooW-58" value="สามัญลักษณะ" style="rounded=1;whiteSpace=wrap;html=1;" vertex="1" parent="1">
          <mxGeometry x="270" y="280" width="120" height="60" as="geometry" />
        </mxCell>
        <mxCell id="BVzkEmnIKLTDEYWlBooW-59" value="อนิจจลักษณะ" style="rounded=1;whiteSpace=wrap;html=1;" vertex="1" parent="1">
          <mxGeometry x="70" y="260" width="120" height="60" as="geometry" />
        </mxCell>
        <mxCell id="BVzkEmnIKLTDEYWlBooW-60" value="ทุกขลักษณะ" style="rounded=1;whiteSpace=wrap;html=1;" vertex="1" parent="1">
          <mxGeometry x="70" y="350" width="120" height="60" as="geometry" />
        </mxCell>
        <mxCell id="BVzkEmnIKLTDEYWlBooW-61" value="อนัตตลักษณะ" style="rounded=1;whiteSpace=wrap;html=1;" vertex="1" parent="1">
          <mxGeometry x="70" y="440" width="120" height="60" as="geometry" />
        </mxCell>
        <mxCell id="BVzkEmnIKLTDEYWlBooW-76" style="edgeStyle=none;rounded=0;orthogonalLoop=1;jettySize=auto;html=1;startArrow=none;startFill=0;endArrow=open;endFill=0;" edge="1" parent="1" source="BVzkEmnIKLTDEYWlBooW-74" target="BVzkEmnIKLTDEYWlBooW-75">
          <mxGeometry relative="1" as="geometry" />
        </mxCell>
        <mxCell id="BVzkEmnIKLTDEYWlBooW-78" style="edgeStyle=none;rounded=0;orthogonalLoop=1;jettySize=auto;html=1;startArrow=none;startFill=0;endArrow=open;endFill=0;" edge="1" parent="1" source="BVzkEmnIKLTDEYWlBooW-74" target="BVzkEmnIKLTDEYWlBooW-77">
          <mxGeometry relative="1" as="geometry" />
        </mxCell>
        <mxCell id="BVzkEmnIKLTDEYWlBooW-74" value="วิเสสลักษณะ" style="rounded=1;whiteSpace=wrap;html=1;" vertex="1" parent="1">
          <mxGeometry x="270" y="140" width="120" height="60" as="geometry" />
        </mxCell>
        <mxCell id="BVzkEmnIKLTDEYWlBooW-75" value="ลักษณะ" style="rounded=1;whiteSpace=wrap;html=1;" vertex="1" parent="1">
          <mxGeometry x="470" y="20" width="120" height="60" as="geometry" />
        </mxCell>
        <mxCell id="BVzkEmnIKLTDEYWlBooW-80" style="edgeStyle=none;rounded=0;orthogonalLoop=1;jettySize=auto;html=1;startArrow=none;startFill=0;endArrow=open;endFill=0;" edge="1" parent="1" source="BVzkEmnIKLTDEYWlBooW-77" target="BVzkEmnIKLTDEYWlBooW-79">
          <mxGeometry relative="1" as="geometry" />
        </mxCell>
        <mxCell id="BVzkEmnIKLTDEYWlBooW-82" style="edgeStyle=none;rounded=0;orthogonalLoop=1;jettySize=auto;html=1;startArrow=none;startFill=0;endArrow=open;endFill=0;" edge="1" parent="1" source="BVzkEmnIKLTDEYWlBooW-77" target="BVzkEmnIKLTDEYWlBooW-81">
          <mxGeometry relative="1" as="geometry" />
        </mxCell>
        <mxCell id="BVzkEmnIKLTDEYWlBooW-77" value="รสะ" style="rounded=1;whiteSpace=wrap;html=1;" vertex="1" parent="1">
          <mxGeometry x="470" y="140" width="120" height="60" as="geometry" />
        </mxCell>
        <mxCell id="BVzkEmnIKLTDEYWlBooW-79" value="กิจรสะ" style="rounded=1;whiteSpace=wrap;html=1;" vertex="1" parent="1">
          <mxGeometry x="660" y="100" width="120" height="60" as="geometry" />
        </mxCell>
        <mxCell id="BVzkEmnIKLTDEYWlBooW-81" value="สัมปัตติรสะ" style="rounded=1;whiteSpace=wrap;html=1;" vertex="1" parent="1">
          <mxGeometry x="660" y="210" width="120" height="60" as="geometry" />
        </mxCell>
      </root>
    </mxGraphModel>
  </diagram>
</mxfile>
